<svg xmlns="http://www.w3.org/2000/svg" viewBox="0 0 16 16" id="Blogger--Streamline-Font-Awesome" height="16" width="16">
  <desc>
    Blogger Streamline Icon: https://streamlinehq.com
  </desc>
  <rect x="2" y="2" width="12" height="12" rx="2" fill="#ffffff"></rect>
  <path d="M5.844335714285714 5.900471428571429c0.16801071428571426 -0.17151071428571427 0.2170142857142857 -0.1785107142857143 1.274075 -0.1785107142857143 0.9520571428571427 0 0.9835571428571428 0.0035 1.1235678571428571 0.07350357142857143 0.2030107142857143 0.10150714285714285 0.2905178571428571 0.2450142857142857 0.2905178571428571 0.47602857142857136 0 0.20651071428571427 -0.08400714285714285 0.35002142857142854 -0.26601785714285714 0.4690285714285714 -0.09800357142857143 0.06300357142857142 -0.15750714285714285 0.06650357142857143 -1.0885642857142857 0.07350357142857143 -0.5740321428571429 0.0035 -1.0325607142857143 -0.007 -1.1025642857142857 -0.028003571428571426 -0.36052142857142855 -0.10150357142857142 -0.49352857142857137 -0.6195357142857143 -0.2310142857142857 -0.88555Zm2.1491285714285713 3.307696428571428c-1.8866142857142858 0 -1.9531178571428571 0.007 -2.107125 0.14350714285714286 -0.12250714285714286 0.10850714285714284 -0.1995142857142857 0.32901785714285714 -0.1785107142857143 0.4865285714285714 0.0245 0.1645107142857143 0.16801071428571426 0.35352142857142854 0.32201785714285713 0.420025 0.07700357142857142 0.035003571428571426 0.49352857142857137 0.05950357142857142 1.9706178571428572 0.042003571428571425l1.6765964285714283 -0.021003571428571427 0.32202142857142857 -0.0525c0.31501785714285707 -0.1785107142857143 0.36752142857142855 -0.6090392857142857 0.10850714285714284 -0.8540535714285713 -0.1855142857142857 -0.16450714285714285 -0.17501071428571427 -0.16450714285714285 -2.114125 -0.16450714285714285Zm7.8194607142857135 4.553767857142857c-0.12250714285714286 0.9940571428571429 -0.8050464285714285 1.7641035714285713 -1.7886035714285713 2.012617857142857 -0.2520178571428571 0.06300357142857142 -0.3395214285714286 0.06650357142857143 -6.051860714285714 0.06300357142857142 -5.523325 0 -5.806842857142857 -0.0035 -6.02035357142857 -0.06300357142857142 -0.2940178571428571 -0.07700357142857142 -0.5460321428571429 -0.19251071428571426 -0.7805464285714285 -0.35002142857142854 -0.19601071428571426 -0.13300714285714285 -0.4865285714285714 -0.41302142857142854 -0.5950357142857143 -0.5740321428571429 -0.13300714285714285 -0.19601071428571426 -0.28701785714285716 -0.5355321428571428 -0.35002142857142854 -0.7700464285714285 -0.06300357142857142 -0.2345142857142857 -0.06650357142857143 -0.32901785714285714 -0.06650357142857143 -6.069357142857143 0 -5.708839285714285 0 -5.831346428571429 0.06300357142857142 -6.079860714285713 0.22051428571428572 -0.8645499999999999 0.9065535714285714 -1.5260892857142856 1.792107142857143 -1.7221 0.2555142857142857 -0.05600357142857143 11.624185714285712 -0.06650714285714286 11.90070357142857 -0.010503571428571426 0.7420428571428571 0.15051071428571428 1.3265785714285714 0.5985357142857143 1.6660964285714286 1.274075 0.26951785714285714 0.5355321428571428 0.24501785714285712 -0.0525 0.25551785714285713 6.321375 0.007 4.053239285714286 0 5.757839285714286 -0.02450357142857143 5.967853571428571ZM12.823749999999999 7.27955357142857c-0.03850357142857143 -0.17501071428571427 -0.14701071428571427 -0.3360214285714285 -0.26951785714285714 -0.40252499999999997 -0.0385 -0.020999999999999998 -0.2800142857142857 -0.04550357142857143 -0.5425321428571428 -0.05950357142857142 -0.43402499999999994 -0.020999999999999998 -0.4830285714285714 -0.028003571428571426 -0.6230357142857142 -0.10850714285714284 -0.2170142857142857 -0.12600714285714285 -0.2765178571428571 -0.2660142857142857 -0.2800178571428571 -0.6405357142857142 0 -0.7140428571428572 -0.29751785714285717 -1.3790821428571427 -0.88555 -1.977617857142857 -0.420025 -0.427025 -0.8855535714285714 -0.7175428571428571 -1.421085714285714 -0.8785535714285714 -0.12600714285714285 -0.0385 -0.413025 -0.05250357142857143 -1.3720821428571428 -0.06300357142857142 -1.5015857142857143 -0.017499999999999998 -1.8376071428571428 0.014003571428571428 -2.348635714285714 0.2170142857142857 -0.9450571428571428 0.3745214285714285 -1.6205964285714285 1.169067857142857 -1.8691107142857142 2.1841285714285714 -0.04550357142857143 0.18901071428571428 -0.05600357142857143 0.49702857142857143 -0.06650714285714286 2.2506321428571425 -0.014 2.1981321428571428 0 2.52365 0.1400107142857143 2.9576749999999996 0.33951785714285715 1.0745642857142856 1.298575 1.8691107142857142 2.261132142857143 2.044121428571428 0.32201785714285713 0.05950357142857142 4.277253571428571 0.07350357142857143 4.679778571428572 0.017503571428571427 0.7035392857142857 -0.09450714285714285 1.2565714285714285 -0.37802499999999994 1.7746035714285713 -0.9065535714285714 0.3745214285714285 -0.381525 0.6090357142857142 -0.79805 0.7630464285714286 -1.3475821428571428 0.11200714285714286 -0.38152142857142857 0.10150357142857142 -3.094182142857143 0.05950357142857142 -3.286692857142857Z" fill="#000000" stroke-width="0.0357"></path>
</svg>